<svg width="1440" height="1024" viewBox="0 0 1440 1024" fill="none" xmlns="http://www.w3.org/2000/svg">
<g clip-path="url(#clip0_3_4)">
<rect width="1440" height="1024" fill="white"/>
<rect x="-217" y="665" width="1818" height="586" fill="#1B4030"/>
<path d="M0 0H1440V266.103C1440 266.103 1082 398 720 266.103C358 134.206 0 266.103 0 266.103V0Z" fill="#B6D9D9"/>
<path d="M0 168.522C0 168.522 436.5 57.0973 720 168.522C1003.5 279.947 1440 168.522 1440 168.522V468.022C1440 468.022 1082 616.472 720 468.022C358 319.572 0 468.022 0 468.022V168.522Z" fill="#67C4C4"/>
<path d="M-349 338.009C-349 338.009 87.5 239.486 371 338.009C654.5 436.532 922 437.029 1091 338.009C1260 238.989 1480 338.009 1480 338.009V602.829C1480 602.829 1274.5 546.499 1091 602.829C822.315 685.309 733 734.09 371 602.829C9.00024 471.568 -349 602.829 -349 602.829V338.009Z" fill="#4B8091"/>
<path d="M-49 513.222C-49 513.222 387.5 414.222 671 513.222C954.5 612.222 1222 612.722 1391 513.222C1560 413.722 1780 513.222 1780 513.222V779.325C1780 779.325 1574.5 722.722 1391 779.325C1122.31 862.205 1033 911.222 671 779.325C309 647.428 -49 779.325 -49 779.325V513.222Z" fill="#3B6171"/>
</g>
<defs>
<clipPath id="clip0_3_4">
<rect width="1440" height="1024" fill="white"/>
</clipPath>
</defs>
</svg>
